<?xml version="1.0" standalone="no"?>
<!DOCTYPE svg PUBLIC "-//W3C//DTD SVG 20010904//EN"
 "http://www.w3.org/TR/2001/REC-SVG-20010904/DTD/svg10.dtd">
<svg version="1.0" xmlns="http://www.w3.org/2000/svg"
 width="500.000000pt" height="500.000000pt" viewBox="0 0 500.000000 500.000000"
 preserveAspectRatio="xMidYMid meet">

<g transform="translate(0.000000,500.000000) scale(0.100000,-0.100000)"
fill="#000000" stroke="none">
<path d="M0 2500 l0 -2500 2500 0 2500 0 0 2500 0 2500 -2500 0 -2500 0 0
-2500z m2708 1990 c390 -42 737 -186 1052 -437 401 -320 675 -824 730 -1344
17 -164 10 -391 -16 -537 l-6 -32 -737 2 -736 3 -3 108 -3 107 336 0 335 0 0
165 0 165 -335 0 -335 0 0 100 0 100 390 0 390 0 0 170 0 170 -615 0 -615 0 0
-717 0 -716 916 6 916 7 -6 -28 c-12 -50 -127 -276 -190 -372 -281 -428 -686
-718 -1186 -848 -191 -50 -248 -57 -490 -57 -242 0 -299 7 -490 57 -575 150
-1034 519 -1297 1043 -153 303 -222 621 -209 960 4 94 10 190 14 215 l7 45
383 3 382 2 0 -510 0 -510 545 0 545 0 0 170 0 170 -315 0 -315 0 0 113 0 112
315 -3 315 -3 0 166 0 165 -314 0 -315 0 -3 100 -3 100 318 0 317 0 0 170 0
170 -870 2 -870 3 64 130 c196 402 492 703 889 906 237 121 452 184 727 212
79 8 297 6 388 -3z"/>
<path d="M1030 3425 c0 -13 43 -15 325 -15 282 0 325 2 325 15 0 13 -43 15
-325 15 -282 0 -325 -2 -325 -15z"/>
<path d="M3490 1670 c0 -20 7 -20 325 -20 318 0 325 0 325 20 0 20 -7 20 -325
20 -318 0 -325 0 -325 -20z"/>
<path d="M1640 1550 l0 -90 50 0 c38 0 50 4 50 15 0 13 -26 21 -53 16 -5 -1
-7 9 -5 21 2 17 10 23 28 23 35 0 33 29 -2 33 -20 2 -28 9 -28 23 0 14 7 19
30 19 20 0 30 5 30 15 0 11 -12 15 -50 15 l-50 0 0 -90z"/>
<path d="M1798 1553 c-31 -76 -34 -89 -20 -92 9 -2 23 6 30 18 20 29 78 29 87
1 4 -11 15 -20 27 -20 13 0 18 5 15 14 -3 8 -20 49 -37 90 -43 103 -56 101
-102 -11z m71 -15 c1 -5 -8 -8 -19 -8 -23 0 -24 4 -8 33 11 21 11 21 19 2 4
-11 8 -23 8 -27z"/>
<path d="M1992 1628 c-6 -6 -12 -24 -12 -39 0 -20 9 -32 35 -48 19 -11 35 -24
35 -30 0 -15 -30 -21 -52 -10 -16 8 -23 8 -29 -2 -20 -32 67 -54 105 -26 31
22 17 69 -26 92 -45 24 -44 41 1 37 26 -2 32 1 29 15 -4 22 -67 30 -86 11z"/>
<path d="M2146 1588 c23 -37 34 -64 34 -90 0 -30 4 -38 18 -38 13 0 17 10 19
45 1 32 11 58 33 90 30 44 31 45 8 45 -12 0 -32 -12 -44 -27 l-21 -27 -18 27
c-10 17 -26 27 -41 27 -23 0 -22 -1 12 -52z"/>
<path d="M2305 1558 c2 -46 3 -86 4 -90 1 -5 24 -8 51 -8 37 0 50 4 50 14 0 9
-12 16 -32 18 -46 4 -53 38 -9 38 24 0 31 4 31 20 0 16 -7 20 -31 20 -44 0
-37 34 9 38 20 2 32 9 32 18 0 10 -14 14 -54 14 l-53 0 2 -82z"/>
<path d="M2450 1549 c0 -81 2 -90 18 -87 13 3 17 14 17 51 0 26 3 47 6 47 4 0
21 -22 39 -50 20 -31 39 -50 51 -50 17 0 19 8 19 90 0 83 -1 90 -20 90 -18 0
-20 -7 -20 -57 l-1 -58 -35 58 c-23 37 -42 57 -55 57 -17 0 -19 -8 -19 -91z"/>
<path d="M2665 1615 c-35 -34 -35 -96 0 -130 47 -48 128 -23 141 43 6 32 6 32
-34 32 -26 0 -42 -5 -46 -15 -4 -11 1 -15 19 -15 30 0 24 -25 -8 -34 -49 -12
-77 63 -37 99 17 15 24 16 47 6 33 -15 53 6 26 27 -28 21 -81 15 -108 -13z"/>
<path d="M2840 1550 l0 -90 50 0 c38 0 50 4 50 15 0 10 -10 15 -30 15 l-30 0
0 75 c0 68 -2 75 -20 75 -19 0 -20 -7 -20 -90z"/>
<path d="M2980 1550 c0 -83 1 -90 20 -90 19 0 20 7 20 90 0 83 -1 90 -20 90
-19 0 -20 -7 -20 -90z"/>
<path d="M3085 1624 c-23 -24 -15 -56 22 -79 18 -11 32 -25 33 -32 0 -16 -22
-22 -43 -11 -20 10 -37 3 -37 -17 0 -16 22 -25 66 -25 25 0 38 6 50 25 21 32
13 50 -31 76 -40 24 -41 44 -2 44 32 0 46 13 27 25 -23 15 -67 12 -85 -6z"/>
<path d="M3223 1550 c2 -78 4 -90 20 -90 13 0 17 8 17 33 0 41 4 45 35 39 21
-4 25 -10 25 -38 0 -27 4 -34 20 -34 19 0 20 7 20 90 0 85 -1 90 -21 90 -19 0
-21 -4 -16 -35 6 -34 5 -35 -29 -35 -32 0 -34 2 -34 35 0 28 -4 35 -19 35 -18
0 -19 -7 -18 -90z"/>
</g>
</svg>
