<?xml version="1.0" standalone="no"?>
<!DOCTYPE svg PUBLIC "-//W3C//DTD SVG 20010904//EN"
 "http://www.w3.org/TR/2001/REC-SVG-20010904/DTD/svg10.dtd">
<svg version="1.0" xmlns="http://www.w3.org/2000/svg"
 width="738.000000pt" height="738.000000pt" viewBox="0 0 738.000000 738.000000"
 preserveAspectRatio="xMidYMid meet">
<metadata>
Created by potrace 1.10, written by Peter Selinger 2001-2011
</metadata>
<g transform="translate(0.000000,738.000000) scale(0.100000,-0.100000)"
fill="#000000" stroke="none">
<path d="M1743 4672 c-10 -6 -117 -182 -136 -222 -4 -8 -11 -22 -17 -30 -16
-24 -130 -221 -130 -225 0 -4 -114 -201 -130 -225 -6 -8 -13 -22 -17 -30 -4
-8 -26 -48 -50 -87 -24 -41 -40 -79 -37 -88 5 -12 25 -15 99 -15 98 0 110 5
135 60 17 38 35 68 55 90 17 19 31 20 245 20 254 0 242 3 287 -80 50 -94 45
-91 152 -88 112 3 118 10 74 79 -44 69 -52 82 -67 114 -8 17 -29 53 -45 80
-17 28 -34 57 -38 65 -8 18 -89 158 -103 180 -6 8 -14 24 -19 35 -5 11 -48 87
-95 169 -47 82 -86 152 -86 156 0 10 -45 50 -56 50 -5 0 -14 -4 -21 -8z m58
-389 c13 -27 42 -81 66 -122 24 -41 42 -80 39 -88 -8 -19 -284 -19 -292 0 -3
8 15 47 39 88 24 41 53 95 66 122 15 30 29 47 41 47 12 0 26 -17 41 -47z"/>
<path d="M4906 4658 c-14 -19 -16 -79 -16 -446 0 -273 4 -430 10 -443 9 -17
22 -19 100 -19 79 0 89 2 95 19 3 11 7 138 8 282 1 173 6 264 13 266 5 2 26
-11 45 -28 18 -17 70 -63 114 -102 44 -39 85 -76 91 -81 6 -6 62 -56 124 -111
63 -55 152 -135 199 -178 76 -68 90 -77 121 -75 l35 3 2 445 c2 250 -1 451 -6
459 -12 18 -165 19 -187 0 -12 -10 -15 -52 -14 -258 0 -135 0 -252 0 -258 0
-17 -37 -17 -47 0 -7 13 -540 473 -607 525 -36 28 -61 28 -80 0z"/>
<path d="M6587 4669 c-10 -6 -22 -20 -28 -32 -5 -12 -13 -29 -19 -37 -14 -22
-95 -162 -103 -180 -4 -8 -16 -28 -27 -45 -11 -16 -24 -39 -30 -50 -5 -11 -26
-47 -45 -80 -19 -33 -38 -67 -42 -75 -4 -8 -23 -42 -43 -75 -20 -33 -51 -87
-69 -120 -18 -33 -51 -90 -72 -126 -54 -91 -49 -99 60 -99 98 0 109 5 143 68
42 78 46 85 60 93 7 5 115 9 240 9 l227 0 23 -32 c13 -18 31 -49 42 -68 35
-67 41 -70 138 -70 72 0 90 3 95 16 5 14 -23 80 -57 134 -22 34 -130 222 -130
226 0 2 -20 38 -45 80 -25 41 -45 77 -45 79 0 2 -27 49 -60 105 -33 56 -60
103 -60 106 0 14 -103 173 -116 178 -19 7 -15 8 -37 -5z m63 -394 c12 -22 32
-58 43 -80 12 -22 30 -51 39 -64 10 -13 18 -34 18 -47 l0 -24 -140 0 c-158 0
-167 4 -132 62 11 18 32 56 47 83 69 126 77 137 91 123 7 -7 22 -31 34 -53z"/>
<path d="M259 4652 c-18 -12 -19 -35 -19 -446 0 -323 3 -435 12 -444 7 -7 44
-12 98 -12 54 0 91 5 98 12 8 8 12 67 12 199 0 119 4 190 10 194 6 4 103 -86
216 -199 l206 -206 113 0 c96 0 114 2 119 17 5 12 -40 62 -176 193 -101 97
-202 193 -225 214 -24 21 -43 46 -43 55 0 9 22 36 50 61 27 25 119 108 205
185 110 99 155 146 155 162 0 20 -5 22 -92 25 -59 2 -101 -1 -116 -9 -24 -13
-179 -151 -315 -280 -49 -47 -83 -73 -92 -69 -12 4 -15 35 -15 169 0 132 -3
167 -14 177 -21 17 -164 18 -187 2z"/>
<path d="M2547 4661 c-36 -10 -37 -26 -37 -462 0 -354 2 -429 14 -438 9 -8 46
-11 103 -9 l88 3 3 164 c1 101 7 170 13 178 13 15 141 18 168 4 14 -8 72 -95
146 -219 6 -9 27 -43 47 -74 l38 -58 104 0 c83 0 105 3 110 15 3 9 -36 77 -99
171 -58 86 -105 163 -105 170 0 7 19 23 43 35 97 49 154 114 175 197 21 85
-28 193 -113 252 -89 61 -104 64 -408 70 -152 3 -283 3 -290 1z m518 -170 c54
-24 76 -51 82 -100 4 -32 1 -48 -18 -75 -38 -56 -69 -65 -237 -67 -82 -1 -155
1 -161 5 -16 10 -15 228 1 244 8 8 56 12 153 12 114 0 147 -4 180 -19z"/>
<path d="M3730 4661 l-75 -6 -3 -318 c-3 -358 -3 -358 76 -448 92 -104 199
-148 363 -149 79 0 124 5 170 20 114 35 214 115 260 207 24 47 24 54 27 358 1
171 -2 316 -7 324 -6 10 -32 13 -96 12 -48 -1 -92 -4 -96 -7 -5 -3 -9 -131 -9
-284 0 -309 -4 -334 -63 -398 -36 -37 -120 -72 -176 -72 -92 0 -186 51 -221
120 -19 36 -20 60 -20 327 0 158 -4 293 -8 299 -11 17 -40 21 -122 15z"/>
<path d="M102 3448 c-14 -14 -16 -35 -3 -42 5 -4 1606 -6 3557 -6 2738 0 3550
3 3555 12 4 7 3 20 -2 30 -9 17 -148 18 -3552 18 -2742 0 -3546 -3 -3555 -12z"/>
<path d="M192 3019 c-18 -6 -51 -28 -72 -51 -36 -36 -40 -45 -40 -92 0 -43 5
-57 30 -84 36 -40 103 -71 150 -72 51 0 120 29 120 51 0 26 -14 31 -46 14 -41
-21 -113 -19 -152 5 -63 39 -67 120 -8 165 46 35 86 41 145 19 54 -19 66 -16
57 14 -12 35 -111 52 -184 31z"/>
<path d="M1799 3014 c-13 -16 7 -29 46 -29 l30 0 2 -105 c4 -136 8 -152 36
-148 21 3 22 8 25 117 3 127 10 145 54 136 21 -5 30 -2 34 10 4 9 4 18 1 21
-11 11 -219 9 -228 -2z"/>
<path d="M3200 3023 c-51 -3 -87 -9 -92 -16 -11 -17 -10 -249 1 -266 6 -10 36
-14 107 -15 93 -1 99 0 99 19 0 18 -8 20 -70 23 -76 3 -95 13 -95 47 0 33 19
43 80 47 41 2 55 7 55 18 0 11 -16 16 -65 20 -59 5 -65 7 -68 28 -2 13 5 33
15 44 15 17 28 19 83 16 59 -3 65 -1 65 17 0 22 0 22 -115 18z"/>
<path d="M3658 3022 c-105 -3 -100 5 -96 -167 l3 -120 25 0 c22 0 25 5 28 45
2 25 7 49 12 54 5 5 35 9 67 10 52 1 58 3 61 23 3 21 -1 22 -65 25 -63 3 -68
5 -71 27 -2 12 -1 34 3 48 6 24 9 25 73 23 37 -2 73 -2 80 -1 14 1 17 31 3 31
-5 0 -15 1 -23 3 -7 1 -52 1 -100 -1z"/>
<path d="M3989 3021 c-68 -21 -129 -89 -129 -146 0 -75 99 -155 191 -155 45 0
117 31 146 63 107 118 -41 288 -208 238z m142 -62 c67 -48 75 -92 26 -145 -28
-31 -42 -37 -85 -42 -65 -6 -90 1 -124 33 -56 52 -29 141 52 174 34 14 97 5
131 -20z"/>
<path d="M5900 3022 c-15 -5 -12 -29 5 -36 8 -3 21 -3 29 0 9 3 21 -5 31 -20
13 -20 16 -44 13 -119 -2 -71 1 -99 12 -112 27 -33 40 7 40 126 0 115 7 132
51 127 18 -2 24 2 24 16 0 17 -9 19 -98 20 -53 1 -102 0 -107 -2z"/>
<path d="M6480 3018 c-61 -17 -120 -87 -120 -143 0 -78 94 -155 187 -155 42 0
107 27 138 57 34 32 59 88 52 115 -4 13 -25 46 -47 71 -56 63 -121 80 -210 55z
m159 -66 c86 -70 30 -182 -92 -182 -121 0 -179 100 -102 175 56 54 132 57 194
7z"/>
<path d="M497 3014 c-11 -12 -8 -253 4 -275 17 -33 39 -5 39 50 0 26 5 52 12
59 7 7 43 12 90 12 89 0 98 -7 98 -85 0 -42 2 -46 23 -43 22 3 22 5 22 143 0
138 0 140 -22 143 -21 3 -23 -1 -23 -45 0 -72 -4 -74 -106 -71 l-89 3 -5 55
c-4 39 -10 56 -20 58 -9 1 -19 0 -23 -4z"/>
<path d="M1007 2988 c-17 -33 -34 -63 -95 -169 -17 -31 -32 -64 -32 -73 0 -26
26 -18 55 16 26 31 31 33 102 34 72 1 74 0 103 -32 16 -19 36 -34 45 -34 20 0
19 32 -3 61 -9 13 -27 42 -39 64 -11 22 -30 56 -42 75 -12 19 -26 47 -32 63
-15 36 -42 34 -62 -5z m64 -93 c27 -46 24 -65 -10 -65 -16 0 -36 -3 -45 -6
-25 -10 -30 21 -10 66 21 47 39 49 65 5z"/>
<path d="M1286 3004 c-9 -24 -7 -247 3 -262 5 -8 17 -12 27 -10 15 2 20 13 22
50 6 87 60 89 116 3 37 -55 55 -68 75 -55 10 6 9 14 -3 38 -9 17 -20 34 -26
37 -20 13 -10 51 20 73 41 31 41 74 -1 113 -30 28 -35 29 -129 29 -80 0 -99
-3 -104 -16z m189 -34 c22 -18 19 -67 -5 -80 -11 -6 -44 -10 -73 -8 l-52 3 -3
38 c-5 55 12 70 70 65 26 -3 54 -11 63 -18z"/>
<path d="M1667 3014 c-4 -4 -7 -67 -7 -139 0 -103 3 -135 14 -144 27 -23 37
21 34 156 -3 106 -6 128 -18 131 -9 1 -19 0 -23 -4z"/>
<path d="M2198 3003 c-8 -10 -18 -25 -22 -33 -3 -8 -16 -31 -27 -50 -12 -19
-33 -56 -46 -83 -14 -26 -29 -50 -34 -53 -12 -7 -12 -51 0 -59 5 -3 23 11 40
32 30 36 32 37 106 39 75 2 76 2 103 -32 47 -59 86 -35 42 26 -11 15 -24 38
-30 51 -6 13 -16 33 -23 44 -7 11 -27 46 -45 78 -19 31 -37 57 -41 57 -4 0
-15 -8 -23 -17z m39 -90 c3 -10 13 -26 20 -35 9 -9 12 -25 8 -37 -6 -19 -15
-21 -89 -12 -13 2 2 62 21 83 20 23 32 23 40 1z"/>
<path d="M2472 3008 c-19 -19 -16 -252 3 -268 26 -21 127 -25 166 -5 75 38 86
67 44 117 -23 27 -24 31 -10 51 23 33 19 73 -11 96 -22 17 -41 21 -103 21 -47
0 -82 -5 -89 -12z m131 -27 c52 -20 41 -74 -18 -85 -43 -8 -75 7 -75 37 0 48
40 68 93 48z m13 -127 c39 -19 47 -57 15 -74 -27 -14 -94 -13 -109 2 -17 17
-15 54 4 72 20 20 47 20 90 0z"/>
<path d="M2817 3014 c-4 -4 -7 -67 -7 -141 0 -114 2 -135 16 -140 9 -3 53 -6
98 -7 76 -1 81 0 84 21 3 21 -1 22 -65 25 l-68 3 -5 120 c-5 111 -6 120 -25
123 -12 2 -24 0 -28 -4z"/>
<path d="M4339 2998 c-1 -13 -1 -63 0 -112 1 -78 4 -93 24 -114 57 -62 139
-68 205 -15 l37 30 3 117 c3 117 3 117 -20 114 -22 -3 -23 -8 -28 -106 -5 -94
-7 -106 -29 -123 -28 -23 -89 -25 -117 -5 -16 12 -19 29 -22 103 -4 115 -8
133 -32 133 -14 0 -20 -7 -21 -22z"/>
<path d="M4734 3007 c-2 -7 -3 -71 -2 -142 3 -118 5 -130 22 -133 28 -6 36 15
36 105 0 45 4 84 8 87 4 2 53 -40 107 -94 55 -55 105 -100 111 -100 20 0 24
27 24 148 0 122 -7 149 -34 139 -13 -5 -16 -23 -16 -92 0 -74 -2 -85 -17 -85
-10 1 -60 41 -112 90 -92 88 -117 103 -127 77z"/>
<path d="M5177 3013 c-4 -3 -7 -66 -7 -140 0 -154 -5 -147 100 -148 113 0 210
69 210 151 0 41 -48 106 -93 127 -35 17 -196 25 -210 10z m203 -62 c29 -23 36
-36 38 -71 5 -66 -48 -110 -130 -110 -68 0 -71 6 -70 106 1 73 4 91 19 102 28
21 101 7 143 -27z"/>
<path d="M5677 3002 c-10 -10 -17 -21 -17 -24 0 -4 -20 -41 -45 -82 -25 -42
-45 -80 -45 -85 0 -5 -7 -14 -15 -21 -17 -14 -20 -56 -6 -65 5 -3 23 11 40 32
30 36 32 37 105 39 l74 2 36 -39 c38 -43 56 -49 56 -19 0 18 -17 52 -58 115
-6 11 -15 27 -19 35 -13 32 -76 130 -83 130 -4 0 -14 -8 -23 -18z m40 -89 c3
-10 13 -26 20 -35 9 -9 12 -25 8 -37 -6 -19 -15 -21 -89 -12 -13 2 2 62 21 83
20 23 32 23 40 1z"/>
<path d="M6207 3014 c-10 -10 -8 -256 2 -272 5 -8 17 -12 27 -10 18 3 19 14
19 143 0 133 -1 140 -20 143 -12 2 -24 0 -28 -4z"/>
<path d="M6834 3007 c-2 -7 -3 -71 -2 -142 3 -118 5 -130 22 -133 28 -6 36 15
36 104 0 44 2 83 5 86 3 3 52 -39 108 -93 56 -54 108 -99 115 -99 9 0 12 36
12 145 0 137 -1 145 -19 145 -26 0 -33 -28 -29 -108 2 -53 0 -67 -12 -70 -8
-1 -58 38 -110 88 -94 89 -116 102 -126 77z"/>
</g>
</svg>
